<svg xmlns:xlink="http://www.w3.org/1999/xlink" id="Layer_1" data-name="Layer 1" xmlns="http://www.w3.org/2000/svg"
     viewBox="0 0 235.63 233.22">
    <defs>
        <style>
            .cls-1{fill:none;}.cls-2{fill:#8050f2;}.cls-3{fill:#623ca4;}.cls-4{fill:#a184e9;}.cls-5{fill:#99aff0;}.cls-6{fill:#c7b2fd;}.cls-7{fill:#7c4f84;}.cls-8{fill:#b48db8;}.cls-9{fill:#986c9e;}.cls-10{fill:url(#linear-gradient);}.cls-11{fill:url(#linear-gradient-2);}.cls-12{fill:url(#linear-gradient-3);}.cls-13{fill:url(#linear-gradient-4);}.cls-14{fill:url(#linear-gradient-5);}.cls-15{fill:url(#linear-gradient-6);}.cls-16{fill:url(#linear-gradient-7);}.cls-17{fill:url(#linear-gradient-8);}.cls-18{fill:url(#linear-gradient-9);}.cls-19{fill:url(#linear-gradient-10);}.cls-20{fill:url(#linear-gradient-11);}.cls-21{fill:url(#linear-gradient-12);}.cls-22{fill:url(#linear-gradient-13);}.cls-23{fill:url(#linear-gradient-14);}.cls-24{fill:url(#linear-gradient-15);}.cls-25{fill:url(#linear-gradient-16);}.cls-26{fill:url(#linear-gradient-17);}.cls-27{fill:url(#linear-gradient-18);}.cls-28{fill:url(#linear-gradient-19);}.cls-29{fill:url(#linear-gradient-20);}.cls-30{fill:url(#linear-gradient-21);}.cls-31{fill:url(#linear-gradient-22);}.cls-32{fill:url(#linear-gradient-23);}.cls-33{fill:url(#linear-gradient-24);}.cls-34{fill:url(#linear-gradient-25);}.cls-35{fill:url(#linear-gradient-26);}.cls-36{fill:url(#linear-gradient-27);}.cls-37{fill:url(#linear-gradient-28);}.cls-38{fill:url(#linear-gradient-29);}.cls-39{fill:url(#linear-gradient-30);}.cls-40{fill:url(#linear-gradient-31);}.cls-41{fill:url(#linear-gradient-32);}.cls-42{fill:url(#linear-gradient-33);}.cls-43{fill:url(#linear-gradient-34);}.cls-44{fill:url(#linear-gradient-35);}.cls-45{fill:url(#linear-gradient-36);}.cls-46{fill:url(#linear-gradient-37);}.cls-47{fill:url(#linear-gradient-38);}.cls-48{fill:url(#linear-gradient-39);}.cls-49{fill:url(#linear-gradient-40);}.cls-50{fill:url(#linear-gradient-41);}.cls-51{fill:url(#linear-gradient-42);}.cls-52{fill:url(#linear-gradient-43);}.cls-53{fill:url(#linear-gradient-44);}.cls-54{fill:url(#linear-gradient-45);}.cls-55{fill:url(#linear-gradient-46);}.cls-56{fill:url(#linear-gradient-47);}.cls-57{fill:url(#linear-gradient-48);}.cls-58{fill:url(#linear-gradient-49);}.cls-59{fill:url(#linear-gradient-50);}.cls-60{fill:url(#linear-gradient-51);}.cls-61{fill:url(#linear-gradient-52);}.cls-62{fill:url(#linear-gradient-53);}.cls-63{fill:url(#linear-gradient-54);}.cls-64{fill:url(#linear-gradient-55);}.cls-65{fill:url(#linear-gradient-56);}.cls-66{fill:url(#linear-gradient-57);}.cls-67{fill:url(#linear-gradient-58);}.cls-68{fill:url(#linear-gradient-59);}.cls-69{fill:url(#linear-gradient-60);}.cls-70{fill:url(#linear-gradient-61);}.cls-71{fill:url(#linear-gradient-62);}.cls-72{fill:url(#linear-gradient-63);}.cls-73{fill:url(#linear-gradient-64);}.cls-74{fill:url(#linear-gradient-65);}.cls-75{fill:url(#linear-gradient-66);}.cls-76{fill:url(#linear-gradient-67);}.cls-77{fill:url(#linear-gradient-68);}.cls-78{fill:url(#linear-gradient-69);}.cls-79{fill:url(#linear-gradient-70);}.cls-80{fill:url(#linear-gradient-71);}.cls-81{fill:url(#linear-gradient-72);}.cls-82{fill:#fcd838;}.cls-83{opacity:0.31;}.cls-84{fill:#a27fb0;}.cls-85{fill:#956b9b;}.cls-105,.cls-86{fill:#190128;}.cls-87{fill:#fb7d5d;}.cls-88,.cls-90{opacity:0.06;}.cls-88{fill:url(#linear-gradient-73);}.cls-89{fill:#dccbde;}.cls-90{fill:url(#linear-gradient-74);}.cls-91{fill:#a2bfef;}.cls-92{fill:#879ade;}.cls-93{clip-path:url(#clip-path);}.cls-104,.cls-94{fill:#1e3667;}.cls-95{fill:#2e1238;}.cls-96{fill:#562c77;}.cls-97{fill:#925f97;}.cls-98{fill:#3c0a59;}.cls-99{fill:#aa80a0;}.cls-100{fill:#452751;}.cls-101{fill:#ed8d9b;}.cls-102{fill:#2a3463;}.cls-102,.cls-104,.cls-105{fill-rule:evenodd;}.cls-103{fill:#ec6379;}.cls-106{fill:#fdfdfd;}.cls-107{fill:#e9e3ff;}.cls-108,.cls-110{fill:#120a30;}.cls-108{opacity:0.25;}.cls-109{fill:#c4a1ba;}.cls-111{fill:#f7991d;}.cls-112{fill:#f6b735;}.cls-113{fill:#fad445;}.cls-114{fill:#fff;}.cls-115{fill:#d3e2f7;}.cls-116{fill:#ea6f00;}.cls-117{fill:#ff871a;}.cls-118{fill:#ffae59;}.cls-119{fill:#6d8a42;}.cls-120{fill:#d84e64;}.cls-121{fill:#761f24;}
        </style>
        <linearGradient id="linear-gradient" x1="39.12" y1="73.43" x2="42.57" y2="73.43"
                        gradientTransform="translate(56.98)" gradientUnits="userSpaceOnUse">
            <stop offset="0" stop-color="#dccbde"/>
            <stop offset="1" stop-color="#b48db8"/>
        </linearGradient>
        <linearGradient id="linear-gradient-2" x1="41.93" y1="75.06" x2="45.37" y2="75.06"
                        xlink:href="#linear-gradient"/>
        <linearGradient id="linear-gradient-3" x1="75.62" y1="94.65" x2="79.06" y2="94.65"
                        xlink:href="#linear-gradient"/>
        <linearGradient id="linear-gradient-4" x1="36.75" y1="74.58" x2="40.97" y2="74.58"
                        xlink:href="#linear-gradient"/>
        <linearGradient id="linear-gradient-5" x1="39.56" y1="76.21" x2="43.77" y2="76.21"
                        xlink:href="#linear-gradient"/>
        <linearGradient id="linear-gradient-6" x1="67.63" y1="92.54" x2="71.85" y2="92.54"
                        xlink:href="#linear-gradient"/>
        <linearGradient id="linear-gradient-7" x1="64.82" y1="90.91" x2="69.04" y2="90.91"
                        xlink:href="#linear-gradient"/>
        <linearGradient id="linear-gradient-8" x1="62.02" y1="89.28" x2="66.23" y2="89.28"
                        xlink:href="#linear-gradient"/>
        <linearGradient id="linear-gradient-9" x1="59.21" y1="87.64" x2="63.43" y2="87.64"
                        xlink:href="#linear-gradient"/>
        <linearGradient id="linear-gradient-10" x1="56.4" y1="86.01" x2="60.62" y2="86.01"
                        xlink:href="#linear-gradient"/>
        <linearGradient id="linear-gradient-11" x1="53.59" y1="84.38" x2="57.81" y2="84.38"
                        xlink:href="#linear-gradient"/>
        <linearGradient id="linear-gradient-12" x1="50.79" y1="82.74" x2="55" y2="82.74" xlink:href="#linear-gradient"/>
        <linearGradient id="linear-gradient-13" x1="47.98" y1="81.11" x2="52.2" y2="81.11"
                        xlink:href="#linear-gradient"/>
        <linearGradient id="linear-gradient-14" x1="45.17" y1="79.48" x2="49.39" y2="79.48"
                        xlink:href="#linear-gradient"/>
        <linearGradient id="linear-gradient-15" x1="42.37" y1="77.85" x2="46.58" y2="77.85"
                        xlink:href="#linear-gradient"/>
        <linearGradient id="linear-gradient-16" x1="70.44" y1="94.99" x2="77.46" y2="94.99"
                        xlink:href="#linear-gradient"/>
        <linearGradient id="linear-gradient-17" x1="34.47" y1="76.31" x2="40.05" y2="76.31"
                        xlink:href="#linear-gradient"/>
        <linearGradient id="linear-gradient-18" x1="70.98" y1="97.13" x2="75.18" y2="97.13"
                        xlink:href="#linear-gradient"/>
        <linearGradient id="linear-gradient-19" x1="32.18" y1="77.81" x2="38.39" y2="77.81"
                        xlink:href="#linear-gradient"/>
        <linearGradient id="linear-gradient-20" x1="61.08" y1="94.04" x2="65.3" y2="94.04"
                        xlink:href="#linear-gradient"/>
        <linearGradient id="linear-gradient-21" x1="58.04" y1="92.3" x2="62.26" y2="92.3"
                        xlink:href="#linear-gradient"/>
        <linearGradient id="linear-gradient-22" x1="55" y1="90.56" x2="59.22" y2="90.56" xlink:href="#linear-gradient"/>
        <linearGradient id="linear-gradient-23" x1="51.96" y1="88.82" x2="56.18" y2="88.82"
                        xlink:href="#linear-gradient"/>
        <linearGradient id="linear-gradient-24" x1="48.92" y1="87.09" x2="53.14" y2="87.09"
                        xlink:href="#linear-gradient"/>
        <linearGradient id="linear-gradient-25" x1="45.88" y1="85.35" x2="50.1" y2="85.35"
                        xlink:href="#linear-gradient"/>
        <linearGradient id="linear-gradient-26" x1="42.84" y1="83.61" x2="47.06" y2="83.61"
                        xlink:href="#linear-gradient"/>
        <linearGradient id="linear-gradient-27" x1="39.8" y1="81.87" x2="44.02" y2="81.87"
                        xlink:href="#linear-gradient"/>
        <linearGradient id="linear-gradient-28" x1="36.76" y1="80.13" x2="40.98" y2="80.13"
                        xlink:href="#linear-gradient"/>
        <linearGradient id="linear-gradient-29" x1="64.09" y1="95.79" x2="68.31" y2="95.79"
                        xlink:href="#linear-gradient"/>
        <linearGradient id="linear-gradient-30" x1="66.85" y1="97.93" x2="72.9" y2="97.93"
                        xlink:href="#linear-gradient"/>
        <linearGradient id="linear-gradient-31" x1="29.9" y1="79.38" x2="36.93" y2="79.38"
                        xlink:href="#linear-gradient"/>
        <linearGradient id="linear-gradient-32" x1="35.52" y1="81.83" x2="39.73" y2="81.83"
                        xlink:href="#linear-gradient"/>
        <linearGradient id="linear-gradient-33" x1="60.78" y1="96.52" x2="65" y2="96.52" xlink:href="#linear-gradient"/>
        <linearGradient id="linear-gradient-34" x1="57.97" y1="94.89" x2="62.19" y2="94.89"
                        xlink:href="#linear-gradient"/>
        <linearGradient id="linear-gradient-35" x1="55.17" y1="93.25" x2="59.38" y2="93.25"
                        xlink:href="#linear-gradient"/>
        <linearGradient id="linear-gradient-36" x1="52.36" y1="91.62" x2="56.58" y2="91.62"
                        xlink:href="#linear-gradient"/>
        <linearGradient id="linear-gradient-37" x1="49.55" y1="89.98" x2="53.77" y2="89.98"
                        xlink:href="#linear-gradient"/>
        <linearGradient id="linear-gradient-38" x1="46.75" y1="88.35" x2="50.96" y2="88.35"
                        xlink:href="#linear-gradient"/>
        <linearGradient id="linear-gradient-39" x1="43.94" y1="86.71" x2="48.15" y2="86.71"
                        xlink:href="#linear-gradient"/>
        <linearGradient id="linear-gradient-40" x1="41.13" y1="85.08" x2="45.35" y2="85.08"
                        xlink:href="#linear-gradient"/>
        <linearGradient id="linear-gradient-41" x1="38.32" y1="83.45" x2="42.54" y2="83.45"
                        xlink:href="#linear-gradient"/>
        <linearGradient id="linear-gradient-42" x1="63.79" y1="99.03" x2="70.61" y2="99.03"
                        xlink:href="#linear-gradient"/>
        <linearGradient id="linear-gradient-43" x1="27.62" y1="79.89" x2="31.84" y2="79.89"
                        xlink:href="#linear-gradient"/>
        <linearGradient id="linear-gradient-44" x1="30.43" y1="81.52" x2="34.64" y2="81.52"
                        xlink:href="#linear-gradient"/>
        <linearGradient id="linear-gradient-45" x1="33.23" y1="83.16" x2="37.45" y2="83.16"
                        xlink:href="#linear-gradient"/>
        <linearGradient id="linear-gradient-46" x1="35.99" y1="84.78" x2="40.2" y2="84.78"
                        xlink:href="#linear-gradient"/>
        <linearGradient id="linear-gradient-47" x1="38.85" y1="91.32" x2="59.91" y2="91.32"
                        xlink:href="#linear-gradient"/>
        <linearGradient id="linear-gradient-48" x1="58.5" y1="98.12" x2="61.8" y2="98.12"
                        xlink:href="#linear-gradient"/>
        <linearGradient id="linear-gradient-49" x1="61.31" y1="99.48" x2="65.52" y2="99.48"
                        xlink:href="#linear-gradient"/>
        <linearGradient id="linear-gradient-50" x1="64.11" y1="101.38" x2="67.41" y2="101.38"
                        xlink:href="#linear-gradient"/>
        <linearGradient id="linear-gradient-51" x1="68.02" y1="95.41" x2="72.22" y2="95.41"
                        xlink:href="#linear-gradient"/>
        <linearGradient id="linear-gradient-52" x1="65.06" y1="93.69" x2="69.26" y2="93.69"
                        xlink:href="#linear-gradient"/>
        <linearGradient id="linear-gradient-53" x1="62.1" y1="91.98" x2="66.3" y2="91.98"
                        xlink:href="#linear-gradient"/>
        <linearGradient id="linear-gradient-54" x1="59.15" y1="90.26" x2="63.34" y2="90.26"
                        xlink:href="#linear-gradient"/>
        <linearGradient id="linear-gradient-55" x1="56.19" y1="88.54" x2="60.38" y2="88.54"
                        xlink:href="#linear-gradient"/>
        <linearGradient id="linear-gradient-56" x1="53.23" y1="86.82" x2="57.42" y2="86.82"
                        xlink:href="#linear-gradient"/>
        <linearGradient id="linear-gradient-57" x1="50.27" y1="85.1" x2="54.46" y2="85.1"
                        xlink:href="#linear-gradient"/>
        <linearGradient id="linear-gradient-58" x1="47.31" y1="83.38" x2="51.5" y2="83.38"
                        xlink:href="#linear-gradient"/>
        <linearGradient id="linear-gradient-59" x1="44.35" y1="81.66" x2="48.54" y2="81.66"
                        xlink:href="#linear-gradient"/>
        <linearGradient id="linear-gradient-60" x1="41.39" y1="79.94" x2="45.58" y2="79.94"
                        xlink:href="#linear-gradient"/>
        <linearGradient id="linear-gradient-61" x1="38.43" y1="78.22" x2="42.62" y2="78.22"
                        xlink:href="#linear-gradient"/>
        <linearGradient id="linear-gradient-62" x1="72.81" y1="93.02" x2="76.26" y2="93.02"
                        xlink:href="#linear-gradient"/>
        <linearGradient id="linear-gradient-63" x1="70" y1="91.38" x2="73.45" y2="91.38" xlink:href="#linear-gradient"/>
        <linearGradient id="linear-gradient-64" x1="67.2" y1="89.75" x2="70.64" y2="89.75"
                        xlink:href="#linear-gradient"/>
        <linearGradient id="linear-gradient-65" x1="64.39" y1="88.11" x2="67.83" y2="88.11"
                        xlink:href="#linear-gradient"/>
        <linearGradient id="linear-gradient-66" x1="61.58" y1="86.48" x2="65.03" y2="86.48"
                        xlink:href="#linear-gradient"/>
        <linearGradient id="linear-gradient-67" x1="58.77" y1="84.84" x2="62.22" y2="84.84"
                        xlink:href="#linear-gradient"/>
        <linearGradient id="linear-gradient-68" x1="55.97" y1="83.21" x2="59.41" y2="83.21"
                        xlink:href="#linear-gradient"/>
        <linearGradient id="linear-gradient-69" x1="53.16" y1="81.57" x2="56.6" y2="81.57"
                        xlink:href="#linear-gradient"/>
        <linearGradient id="linear-gradient-70" x1="50.35" y1="79.94" x2="53.8" y2="79.94"
                        xlink:href="#linear-gradient"/>
        <linearGradient id="linear-gradient-71" x1="47.54" y1="78.3" x2="50.99" y2="78.3"
                        xlink:href="#linear-gradient"/>
        <linearGradient id="linear-gradient-72" x1="44.74" y1="76.67" x2="48.18" y2="76.67"
                        xlink:href="#linear-gradient"/>
        <linearGradient id="linear-gradient-73" x1="74.62" y1="31.61" x2="77.52" y2="52.71"
                        gradientTransform="translate(56.98)" gradientUnits="userSpaceOnUse">
            <stop offset="0" stop-color="#fff"/>
            <stop offset="0.15" stop-color="#d0c4d7"/>
            <stop offset="0.32" stop-color="#a38cb1"/>
            <stop offset="0.48" stop-color="#7e5d92"/>
            <stop offset="0.63" stop-color="#623979"/>
            <stop offset="0.77" stop-color="#4d1f67"/>
            <stop offset="0.9" stop-color="#400f5d"/>
            <stop offset="1" stop-color="#3c0a59"/>
        </linearGradient>
        <linearGradient id="linear-gradient-74" x1="136.52" y1="67.48" x2="139.41" y2="88.58"
                        xlink:href="#linear-gradient-73"/>
        <clipPath id="clip-path">
            <polygon class="cls-1"
                     points="157.3 151.7 103.42 120.22 134.32 81.36 67.13 28.7 42.91 26.39 0 187.97 90.59 233.22 157.3 151.7"/>
        </clipPath>
    </defs>
    <title>Mesa de trabajo 3</title>
    <polygon class="cls-2" points="161.2 224.69 154.21 220.5 154.21 149.36 161.2 153.55 161.2 224.69"/>
    <polygon class="cls-2" points="39.58 154.08 32.59 149.89 32.59 76.22 39.58 80.4 39.58 154.08"/>
    <polygon class="cls-3" points="39.58 154.08 118.25 110.47 80.98 57.49 39.58 80.4 39.58 154.08"/>
    <polygon class="cls-3" points="233.33 181.14 161.2 224.69 161.2 153.55 233.33 110 233.33 181.14"/>
    <polygon class="cls-4" points="161.04 153.89 29.42 76.83 29.42 72.48 235.63 104.7 235.63 109.05 161.04 153.89"/>
    <polygon class="cls-5" points="161.04 149.54 29.42 72.48 104.99 26.38 235.63 104.7 161.04 149.54"/>
    <polygon class="cls-6" points="161.04 149.54 29.42 72.48 104.99 26.38 235.63 104.7 161.04 149.54"/>
    <path class="cls-7"
          d="M83.76,82l38.55,22.42a2.2,2.2,0,0,0,2,.08l15.48-7.41c.5-.3,1-6.77.34-4.67L98.23,74.91a2.17,2.17,0,0,0-2-.08L83.62,79.74C83.11,80,83.17,81.62,83.76,82Z"/>
    <path class="cls-8"
          d="M83.76,80.89l38.55,22.42a2.17,2.17,0,0,0,2,.08S141.83,93,140.35,92L101.56,70c-.58-.34-4.81,2.14-5.31,2.43L83.62,79.74C83.11,80,83.17,80.55,83.76,80.89Z"/>
    <polygon class="cls-9" points="98.37 74.9 96.11 73.59 97.29 72.9 99.55 74.21 98.37 74.9"/>
    <polygon class="cls-9" points="101.17 76.54 98.91 75.22 100.1 74.53 102.36 75.85 101.17 76.54"/>
    <polygon class="cls-9" points="96 76.28 93.73 74.97 95.69 73.83 97.95 75.14 96 76.28"/>
    <polygon class="cls-9" points="98.8 77.92 96.54 76.6 98.5 75.46 100.76 76.78 98.8 77.92"/>
    <polygon class="cls-9" points="134.45 96.37 132.49 97.51 127.42 94.56 127.42 94.08 134.45 95.89 134.45 96.37"/>
    <polygon class="cls-9" points="97.04 77.27 95.08 78.41 91.45 76.3 93.41 75.16 97.04 77.27"/>
    <polygon class="cls-9" points="93.42 80.09 89.17 77.63 91.13 76.49 95.37 78.96 93.42 80.09"/>
    <polygon class="cls-9" points="117.31 93.99 115.05 92.68 117.01 91.54 119.27 92.85 117.31 93.99"/>
    <polygon class="cls-9" points="129.88 99.03 127.92 100.16 123.83 97.78 129.88 98.55 129.88 99.03"/>
    <polygon class="cls-9" points="91.95 81.9 86.89 78.95 88.84 77.81 93.91 80.76 91.95 81.9"/>
    <polygon class="cls-9" points="94.76 83.53 92.5 82.22 94.46 81.08 96.72 82.39 94.76 83.53"/>
    <polygon class="cls-9" points="117.22 96.59 114.96 95.28 116.92 94.14 119.18 95.46 117.22 96.59"/>
    <polygon class="cls-9" points="125.64 101.49 120.78 98.66 120.78 98.19 127.6 99.88 127.6 100.35 125.64 101.49"/>
    <polygon class="cls-9" points="95.28 86.49 93.03 85.18 94.98 84.04 97.24 85.35 95.28 86.49"/>
    <polygon class="cls-9" points="116.89 96.78 114.94 97.92 95.83 86.81 95.83 86.33 116.89 96.31 116.89 96.78"/>
    <polygon class="cls-9" points="117.74 99.55 115.48 98.24 115.48 97.76 118.78 98.47 118.78 98.95 117.74 99.55"/>
    <polygon class="cls-9" points="120.55 101.19 118.29 99.87 118.29 99.39 122.51 99.57 122.51 100.05 120.55 101.19"/>
    <polygon class="cls-9" points="123.36 102.82 121.1 101.5 121.1 101.03 124.4 101.74 124.4 102.22 123.36 102.82"/>
    <rect class="cls-9" x="96.11" y="73.07" width="1.39" height="0.52"/>
    <rect class="cls-9" x="98.65" y="73.74" width="0.9" height="0.4"/>
    <rect class="cls-9" x="100.85" y="75.37" width="1.51" height="0.44"/>
    <rect class="cls-9" x="98.91" y="74.75" width="1.54" height="0.48"/>
    <rect class="cls-9" x="96.54" y="76.13" width="1.97" height="0.49"/>
    <rect class="cls-9" x="99.35" y="76.28" width="1.41" height="0.5"/>
    <rect class="cls-9" x="93.78" y="74.43" width="1.61" height="0.48"/>
    <rect class="cls-9" x="95.83" y="74.65" width="2.12" height="0.5"/>
    <rect class="cls-9" x="91.45" y="75.81" width="1.77" height="0.48"/>
    <rect class="cls-9" x="93.26" y="76.78" width="3.77" height="0.49"/>
    <rect class="cls-9" x="89.17" y="77.15" width="1.42" height="0.46"/>
    <rect class="cls-9" x="92.27" y="78.47" width="3.1" height="0.49"/>
    <rect class="cls-9" x="89.71" y="80.3" width="4.2" height="0.46"/>
    <rect class="cls-9" x="86.89" y="78.47" width="1.2" height="0.49"/>
    <rect class="cls-9" x="94.25" y="81.93" width="2.47" height="0.46"/>
    <rect class="cls-9" x="92.5" y="81.73" width="1.53" height="0.49"/>
    <polygon class="cls-10" points="98.37 74.43 96.11 73.11 97.29 72.42 99.55 73.74 98.37 74.43"/>
    <polygon class="cls-11" points="101.17 76.06 98.91 74.75 100.1 74.06 102.36 75.37 101.17 76.06"/>
    <polygon class="cls-9" points="134.86 96.13 132.6 94.81 132.6 94.34 136.05 94.96 136.05 95.44 134.86 96.13"/>
    <polygon class="cls-12" points="134.86 95.65 132.6 94.34 133.79 93.65 136.05 94.96 134.86 95.65"/>
    <polygon class="cls-13" points="96 75.81 93.73 74.49 95.69 73.36 97.95 74.67 96 75.81"/>
    <polygon class="cls-14" points="98.8 77.44 96.54 76.13 98.5 74.99 100.76 76.3 98.8 77.44"/>
    <polygon class="cls-9" points="126.88 94.24 124.62 92.93 124.62 92.45 128.83 92.63 128.83 93.11 126.88 94.24"/>
    <polygon class="cls-15" points="126.88 93.77 124.62 92.45 126.57 91.31 128.83 92.63 126.88 93.77"/>
    <polygon class="cls-9" points="124.07 92.61 121.81 91.3 121.81 90.82 126.03 91 126.03 91.47 124.07 92.61"/>
    <polygon class="cls-16" points="124.07 92.13 121.81 90.82 123.77 89.68 126.03 91 124.07 92.13"/>
    <polygon class="cls-9" points="121.26 90.98 119 89.66 119 89.19 123.22 89.36 123.22 89.84 121.26 90.98"/>
    <polygon class="cls-17" points="121.26 90.5 119 89.19 120.96 88.05 123.22 89.36 121.26 90.5"/>
    <polygon class="cls-9" points="118.45 89.34 116.19 88.03 116.19 87.55 120.41 87.73 120.41 88.21 118.45 89.34"/>
    <polygon class="cls-18" points="118.45 88.87 116.19 87.55 118.15 86.42 120.41 87.73 118.45 88.87"/>
    <polygon class="cls-9" points="115.64 87.71 113.39 86.4 113.39 85.92 117.6 86.1 117.6 86.57 115.64 87.71"/>
    <polygon class="cls-19" points="115.64 87.24 113.39 85.92 115.34 84.78 117.6 86.1 115.64 87.24"/>
    <polygon class="cls-9" points="112.84 86.08 110.58 84.77 110.58 84.29 114.8 84.47 114.8 84.94 112.84 86.08"/>
    <polygon class="cls-20" points="112.84 85.6 110.58 84.29 112.54 83.15 114.8 84.47 112.84 85.6"/>
    <polygon class="cls-9" points="110.03 84.45 107.77 83.13 107.77 82.66 111.99 82.83 111.99 83.31 110.03 84.45"/>
    <polygon class="cls-21" points="110.03 83.97 107.77 82.66 109.73 81.52 111.99 82.83 110.03 83.97"/>
    <polygon class="cls-9" points="107.22 82.81 104.97 81.5 104.97 81.02 109.18 81.2 109.18 81.68 107.22 82.81"/>
    <polygon class="cls-22" points="107.22 82.34 104.97 81.02 106.92 79.89 109.18 81.2 107.22 82.34"/>
    <polygon class="cls-9" points="104.42 81.18 102.16 79.87 102.16 79.39 106.37 79.57 106.37 80.04 104.42 81.18"/>
    <polygon class="cls-23" points="104.42 80.7 102.16 79.39 104.11 78.25 106.37 79.57 104.42 80.7"/>
    <polygon class="cls-9" points="101.61 79.55 99.35 78.23 99.35 77.76 103.57 77.93 103.57 78.41 101.61 79.55"/>
    <polygon class="cls-24" points="101.61 79.07 99.35 77.76 101.31 76.62 103.57 77.93 101.61 79.07"/>
    <polygon class="cls-25" points="134.45 95.89 132.49 97.03 127.42 94.08 129.38 92.95 134.45 95.89"/>
    <polygon class="cls-26" points="97.04 76.79 95.08 77.93 91.45 75.82 93.41 74.68 97.04 76.79"/>
    <polygon class="cls-9"
             points="130.21 98.36 127.95 97.05 127.95 97.52 130.21 98.84 132.16 97.7 132.16 97.22 130.21 98.36"/>
    <path class="cls-27" d="M132.16,97.22l-2.26-1.31L128,97s2.24,1.33,2.24,1.33Z"/>
    <polygon class="cls-28" points="93.42 79.62 89.17 77.15 91.13 76.01 95.37 78.48 93.42 79.62"/>
    <polygon class="cls-9"
             points="120.32 95.27 118.06 93.95 118.06 94.43 120.32 95.74 122.28 94.61 122.28 94.13 120.32 95.27"/>
    <polygon class="cls-29" points="122.28 94.13 120.02 92.81 118.06 93.95 120.32 95.27 122.28 94.13"/>
    <polygon class="cls-9"
             points="117.28 93.53 115.02 92.21 115.02 92.69 117.28 94 119.24 92.87 119.24 92.39 117.28 93.53"/>
    <polygon class="cls-30" points="119.24 92.39 116.98 91.08 115.02 92.21 117.28 93.53 119.24 92.39"/>
    <polygon class="cls-9"
             points="114.24 91.79 111.98 90.47 111.98 90.95 114.24 92.27 116.2 91.13 116.2 90.65 114.24 91.79"/>
    <polygon class="cls-31" points="116.2 90.65 113.94 89.34 111.98 90.47 114.24 91.79 116.2 90.65"/>
    <polygon class="cls-9"
             points="111.2 90.05 108.94 88.74 108.94 89.21 111.2 90.53 113.16 89.39 113.16 88.91 111.2 90.05"/>
    <polygon class="cls-32" points="113.16 88.91 110.9 87.6 108.94 88.74 111.2 90.05 113.16 88.91"/>
    <polygon class="cls-9"
             points="108.17 88.31 105.91 87 105.91 87.47 108.17 88.79 110.12 87.65 110.12 87.17 108.17 88.31"/>
    <polygon class="cls-33" points="110.12 87.17 107.86 85.86 105.91 87 108.17 88.31 110.12 87.17"/>
    <polygon class="cls-9"
             points="105.13 86.57 102.86 85.26 102.86 85.73 105.13 87.05 107.08 85.91 107.08 85.44 105.13 86.57"/>
    <polygon class="cls-34" points="107.08 85.44 104.82 84.12 102.86 85.26 105.13 86.57 107.08 85.44"/>
    <polygon class="cls-9"
             points="102.08 84.83 99.83 83.52 99.83 84 102.08 85.31 104.04 84.17 104.04 83.69 102.08 84.83"/>
    <polygon class="cls-35" points="104.04 83.69 101.78 82.38 99.83 83.52 102.08 84.83 104.04 83.69"/>
    <polygon class="cls-9" points="99.05 83.09 96.79 81.78 96.79 82.26 99.05 83.57 101 82.43 101 81.96 99.05 83.09"/>
    <polygon class="cls-36" points="101 81.96 98.74 80.64 96.79 81.78 99.05 83.09 101 81.96"/>
    <polygon class="cls-9"
             points="96.01 81.36 93.75 80.04 93.75 80.52 96.01 81.83 97.96 80.69 97.96 80.22 96.01 81.36"/>
    <polygon class="cls-37" points="97.96 80.22 95.7 78.9 93.75 80.04 96.01 81.36 97.96 80.22"/>
    <polygon class="cls-9"
             points="123.34 97.02 121.08 95.7 121.08 96.18 123.34 97.5 125.29 96.36 125.29 95.88 123.34 97.02"/>
    <polygon class="cls-38" points="125.29 95.88 123.03 94.57 121.08 95.7 123.34 97.02 125.29 95.88"/>
    <polygon class="cls-39" points="129.88 98.55 127.92 99.69 123.83 97.31 125.79 96.17 129.88 98.55"/>
    <polygon class="cls-40" points="91.95 81.42 86.89 78.48 88.84 77.34 93.91 80.28 91.95 81.42"/>
    <polygon class="cls-41" points="94.76 83.06 92.5 81.74 94.46 80.6 96.72 81.92 94.76 83.06"/>
    <polygon class="cls-9"
             points="120.03 97.75 117.77 96.44 117.77 96.91 120.03 98.23 121.98 97.09 121.98 96.61 120.03 97.75"/>
    <polygon class="cls-42" points="121.98 96.61 119.72 95.3 117.77 96.44 120.03 97.75 121.98 96.61"/>
    <polygon class="cls-9"
             points="117.22 96.11 114.96 94.8 114.96 95.28 117.22 96.59 119.18 95.45 119.18 94.98 117.22 96.11"/>
    <polygon class="cls-43" points="119.18 94.98 116.92 93.66 114.96 94.8 117.22 96.11 119.18 94.98"/>
    <polygon class="cls-9"
             points="114.41 94.48 112.15 93.17 112.15 93.64 114.41 94.96 116.37 93.82 116.37 93.34 114.41 94.48"/>
    <polygon class="cls-44" points="116.37 93.34 114.11 92.03 112.15 93.17 114.41 94.48 116.37 93.34"/>
    <polygon class="cls-9"
             points="111.61 92.84 109.34 91.53 109.34 92.01 111.61 93.32 113.56 92.18 113.56 91.71 111.61 92.84"/>
    <polygon class="cls-45" points="113.56 91.71 111.3 90.39 109.34 91.53 111.61 92.84 113.56 91.71"/>
    <polygon class="cls-9"
             points="108.8 91.21 106.54 89.9 106.54 90.37 108.8 91.69 110.75 90.55 110.75 90.07 108.8 91.21"/>
    <polygon class="cls-46" points="110.75 90.07 108.5 88.76 106.54 89.9 108.8 91.21 110.75 90.07"/>
    <polygon class="cls-9"
             points="105.99 89.58 103.73 88.26 103.73 88.74 105.99 90.05 107.95 88.92 107.95 88.44 105.99 89.58"/>
    <polygon class="cls-47" points="107.95 88.44 105.69 87.12 103.73 88.26 105.99 89.58 107.95 88.44"/>
    <polygon class="cls-9"
             points="103.18 87.94 100.92 86.63 100.92 87.1 103.18 88.42 105.14 87.28 105.14 86.8 103.18 87.94"/>
    <polygon class="cls-48" points="105.14 86.8 102.88 85.49 100.92 86.63 103.18 87.94 105.14 86.8"/>
    <polygon class="cls-9"
             points="100.38 86.31 98.12 84.99 98.12 85.47 100.38 86.78 102.33 85.64 102.33 85.17 100.38 86.31"/>
    <polygon class="cls-49" points="102.33 85.17 100.07 83.85 98.12 84.99 100.38 86.31 102.33 85.17"/>
    <polygon class="cls-9"
             points="97.57 84.67 95.31 83.36 95.31 83.83 97.57 85.15 99.53 84.01 99.53 83.53 97.57 84.67"/>
    <polygon class="cls-50" points="99.53 83.53 97.27 82.22 95.31 83.36 97.57 84.67 99.53 83.53"/>
    <polygon class="cls-51" points="125.64 101.02 120.78 98.19 122.74 97.05 127.6 99.88 125.64 101.02"/>
    <path class="cls-9" d="M86.86,81.12,84.6,79.8v.5s2.26,1.29,2.26,1.29l2-1.13V80Z"/>
    <path class="cls-52" d="M86.56,78.67l-2,1.13,2.26,1.32,2-1.14Z"/>
    <path class="cls-9" d="M89.67,82.75l-2.26-1.31v.46l2.26,1.33,2-1.14v-.48Z"/>
    <path class="cls-53" d="M89.37,80.3l-2,1.14,2.26,1.31,2-1.14Z"/>
    <path class="cls-9" d="M92.48,84.38l-2.26-1.31v.46s2.26,1.33,2.26,1.33l2-1.14v-.47Z"/>
    <path class="cls-54" d="M92.18,81.93l-2,1.14,2.26,1.31,2-1.13Z"/>
    <path class="cls-9" d="M95.23,86,93,84.7v.46s2.26,1.33,2.26,1.33l2-1.14v-.48Z"/>
    <path class="cls-55" d="M94.93,83.56,93,84.7,95.23,86l2-1.14Z"/>
    <polygon class="cls-56" points="116.89 96.31 114.94 97.44 95.83 86.33 97.79 85.2 116.89 96.31"/>
    <polygon class="cls-57" points="117.74 99.08 115.48 97.76 116.52 97.16 118.78 98.47 117.74 99.08"/>
    <polygon class="cls-58" points="120.55 100.71 118.29 99.39 120.25 98.26 122.51 99.57 120.55 100.71"/>
    <polygon class="cls-59" points="123.36 102.34 121.1 101.03 122.14 100.42 124.4 101.74 123.36 102.34"/>
    <polygon class="cls-9"
             points="127.25 96.64 124.99 95.33 124.99 95.8 127.25 97.12 129.2 95.98 129.2 95.5 127.25 96.64"/>
    <path class="cls-60" d="M129.2,95.5l-2.26-1.31L125,95.31s2.24,1.33,2.24,1.33Z"/>
    <polygon class="cls-9"
             points="124.29 94.92 122.03 93.61 122.03 94.08 124.29 95.4 126.24 94.26 126.24 93.78 124.29 94.92"/>
    <path class="cls-61" d="M126.24,93.78,124,92.47l-1.93,1.12s2.24,1.33,2.24,1.33Z"/>
    <polygon class="cls-9"
             points="121.33 93.2 119.07 91.89 119.07 92.36 121.33 93.68 123.28 92.54 123.28 92.06 121.33 93.2"/>
    <path class="cls-62" d="M123.28,92.06,121,90.75l-1.93,1.12s2.24,1.33,2.24,1.33Z"/>
    <polygon class="cls-9"
             points="118.37 91.48 116.11 90.17 116.11 90.64 118.37 91.96 120.32 90.82 120.32 90.34 118.37 91.48"/>
    <path class="cls-63" d="M120.32,90.34,118.06,89l-1.93,1.13s2.24,1.32,2.24,1.32Z"/>
    <polygon class="cls-9"
             points="115.41 89.76 113.15 88.45 113.15 88.92 115.41 90.24 117.36 89.1 117.36 88.63 115.41 89.76"/>
    <path class="cls-64" d="M117.36,88.62l-2.25-1.31-1.94,1.13s2.24,1.32,2.24,1.32Z"/>
    <polygon class="cls-9"
             points="112.45 88.04 110.19 86.73 110.19 87.21 112.45 88.52 114.41 87.38 114.41 86.91 112.45 88.04"/>
    <path class="cls-65" d="M114.4,86.91l-2.26-1.32-1.93,1.13S112.45,88,112.45,88Z"/>
    <polygon class="cls-9"
             points="109.49 86.32 107.23 85.01 107.23 85.49 109.49 86.8 111.44 85.66 111.44 85.19 109.49 86.32"/>
    <path class="cls-66" d="M111.44,85.19l-2.25-1.32L107.25,85s2.24,1.32,2.24,1.32Z"/>
    <polygon class="cls-9"
             points="106.53 84.61 104.27 83.29 104.27 83.77 106.53 85.08 108.48 83.94 108.48 83.47 106.53 84.61"/>
    <path class="cls-67" d="M108.48,83.47l-2.25-1.32-1.94,1.13s2.24,1.32,2.24,1.32Z"/>
    <polygon class="cls-9"
             points="103.57 82.89 101.31 81.57 101.31 82.05 103.57 83.36 105.53 82.22 105.53 81.75 103.57 82.89"/>
    <path class="cls-68" d="M105.53,81.75l-2.26-1.32-1.94,1.13s2.24,1.33,2.24,1.33Z"/>
    <polygon class="cls-9"
             points="100.61 81.17 98.35 79.85 98.35 80.33 100.61 81.64 102.56 80.5 102.56 80.03 100.61 81.17"/>
    <path class="cls-69" d="M102.57,80l-2.26-1.32-1.94,1.13s2.24,1.33,2.24,1.33Z"/>
    <polygon class="cls-9"
             points="97.65 79.45 95.39 78.13 95.39 78.61 97.65 79.92 99.61 78.78 99.61 78.31 97.65 79.45"/>
    <path class="cls-70" d="M99.61,78.31,97.35,77l-1.94,1.13s2.24,1.33,2.24,1.33Z"/>
    <polygon class="cls-9" points="132.05 94.49 129.79 93.18 129.79 92.7 133.24 93.33 133.24 93.8 132.05 94.49"/>
    <polygon class="cls-71" points="132.05 94.02 129.79 92.7 130.98 92.01 133.24 93.33 132.05 94.02"/>
    <polygon class="cls-9" points="129.25 92.86 126.99 91.55 126.99 91.07 130.43 91.69 130.43 92.17 129.25 92.86"/>
    <polygon class="cls-72" points="129.25 92.38 126.99 91.07 128.17 90.38 130.43 91.69 129.25 92.38"/>
    <polygon class="cls-9" points="126.44 91.22 124.18 89.91 124.18 89.43 127.63 90.06 127.63 90.53 126.44 91.22"/>
    <polygon class="cls-73" points="126.44 90.75 124.18 89.43 125.37 88.74 127.63 90.06 126.44 90.75"/>
    <polygon class="cls-9" points="123.63 89.59 121.37 88.28 121.37 87.8 124.82 88.42 124.82 88.9 123.63 89.59"/>
    <polygon class="cls-74" points="123.63 89.11 121.37 87.8 122.56 87.11 124.82 88.42 123.63 89.11"/>
    <polygon class="cls-9" points="120.83 87.95 118.56 86.64 118.56 86.16 122.01 86.79 122.01 87.27 120.83 87.95"/>
    <polygon class="cls-75" points="120.83 87.48 118.56 86.16 119.75 85.47 122.01 86.79 120.83 87.48"/>
    <polygon class="cls-9" points="118.02 86.32 115.76 85.01 115.76 84.53 119.2 85.15 119.2 85.63 118.02 86.32"/>
    <polygon class="cls-76" points="118.02 85.84 115.76 84.53 116.94 83.84 119.2 85.15 118.02 85.84"/>
    <polygon class="cls-9" points="115.21 84.69 112.95 83.37 112.95 82.89 116.4 83.52 116.4 84 115.21 84.69"/>
    <polygon class="cls-77" points="115.21 84.21 112.95 82.89 114.14 82.21 116.4 83.52 115.21 84.21"/>
    <polygon class="cls-9" points="112.4 83.05 110.14 81.74 110.14 81.26 113.59 81.88 113.59 82.36 112.4 83.05"/>
    <polygon class="cls-78" points="112.4 82.57 110.14 81.26 111.33 80.57 113.59 81.88 112.4 82.57"/>
    <polygon class="cls-9" points="109.6 81.42 107.34 80.1 107.34 79.63 110.78 80.25 110.78 80.73 109.6 81.42"/>
    <polygon class="cls-79" points="109.6 80.94 107.34 79.63 108.52 78.94 110.78 80.25 109.6 80.94"/>
    <polygon class="cls-9" points="106.79 79.78 104.53 78.47 104.53 77.99 107.97 78.61 107.97 79.09 106.79 79.78"/>
    <polygon class="cls-80" points="106.79 79.3 104.53 77.99 105.72 77.3 107.97 78.61 106.79 79.3"/>
    <polygon class="cls-9" points="103.98 78.15 101.72 76.83 101.72 76.36 105.17 76.98 105.17 77.46 103.98 78.15"/>
    <polygon class="cls-81" points="103.98 77.67 101.72 76.36 102.91 75.67 105.17 76.98 103.98 77.67"/>
    <polygon class="cls-82" points="85.03 76.78 111.44 61.54 95.5 52.34 69.09 67.58 85.03 76.78"/>
    <path class="cls-8"
          d="M118.6,60.74l29.25,17s6.6-5,10.55-6.17L127.31,53.51a44.85,44.85,0,0,0-10.52,6.1c-.06,0,1.81,1.13,1.81,1.13Z"/>
    <g class="cls-83">
        <path class="cls-84"
              d="M118.61,60.72c2.49,1.32,5,2.63,7.45,4l3.7,2,3.67,2.1q3.69,2.09,7.32,4.26l3.64,2.15c1.22.71,2.41,1.46,3.62,2.19l-.46.27a4.91,4.91,0,0,1,.51-.51,2.77,2.77,0,0,1,.29-.22l.23-.16.92-.62c.6-.43,1.24-.81,1.88-1.19l1-.58c.31-.2.65-.35,1-.53l2-1s-1.89,1.16-1.89,1.16c-.31.19-.64.36-1,.57l-.92.61c-.61.41-1.24.8-1.83,1.24l-1.78,1.27s-29.3-17-29.3-17Z"/>
    </g>
    <path class="cls-7" d="M158.4,71.58a44.69,44.69,0,0,0-10.55,6.14v2.17c3.53-2,7.07-4.1,10.59-6.16V71.56Z"/>
    <path class="cls-85" d="M118.6,60.74l-1.87-1.09c0,.73,0,1.45,0,2.17l31.13,18.1V77.75Z"/>
    <path class="cls-84" d="M135.44,52V64.82a1.07,1.07,0,0,0,.63.88,3.29,3.29,0,0,0,3,0,1.07,1.07,0,0,0,.63-.88V52Z"/>
    <polygon class="cls-8" points="147.72 65.08 145.74 63.93 145.74 63.43 147.72 64.59 147.72 65.08"/>
    <polygon class="cls-8" points="150.25 66.56 148.26 65.4 148.26 64.9 150.25 66.06 150.25 66.56"/>
    <polygon class="cls-8" points="152.78 68.03 150.79 66.87 150.79 66.37 152.78 67.53 152.78 68.03"/>
    <path class="cls-7"
          d="M160.06,31.42,106.39.2a1.26,1.26,0,0,0-.82-.19A10.86,10.86,0,0,0,104,.86l.87,1.64V37.86a3.33,3.33,0,0,0,1.49,2.59l53,30.83.28,1.29,1.16-.71c.42-.06.71-.44.71-1.06V34A3.33,3.33,0,0,0,160.06,31.42Z"/>
    <path class="cls-85"
          d="M158.82,72.39,105.14,41.17a3.3,3.3,0,0,1-1.48-2.59V1.79A1.11,1.11,0,0,1,104,.86a1,1,0,0,1,1.11.07l53.68,31.21a3.32,3.32,0,0,1,1.48,2.6V71.53C160.3,72.48,159.64,72.87,158.82,72.39Z"/>
    <path class="cls-8"
          d="M159.68,34.37V69.76c0,.53-.4.73-.86.45L105.14,39a1.94,1.94,0,0,1-.86-1.51V2.15a.55.55,0,0,1,.31-.58.64.64,0,0,1,.55.08l53.68,31.22A1.9,1.9,0,0,1,159.68,34.37Z"/>
    <path class="cls-86"
          d="M159.68,34.37V69.75a.66.66,0,0,1-.56-.09L105.45,38.45a1.92,1.92,0,0,1-.86-1.51V1.57a.58.58,0,0,1,.55.08l53.67,31.21A1.91,1.91,0,0,1,159.68,34.37Z"/>
    <polygon class="cls-8" points="125.4 17.52 106.24 6.46 106.24 4.54 125.4 15.61 125.4 17.52"/>
    <polygon class="cls-8" points="140.75 26.39 131.65 21.13 131.65 19.21 140.75 24.47 140.75 26.39"/>
    <polygon class="cls-8" points="115.17 19.19 106.24 14.03 106.24 12.12 115.17 17.27 115.17 19.19"/>
    <polygon class="cls-8" points="120.67 22.37 116.81 20.14 116.81 18.22 120.67 20.45 120.67 22.37"/>
    <polygon class="cls-8" points="125.5 25.15 121.91 23.08 121.91 21.17 125.5 23.23 125.5 25.15"/>
    <polygon class="cls-8" points="116.81 24.36 106.24 18.26 106.24 16.34 116.81 22.44 116.81 24.36"/>
    <polygon class="cls-87" points="121.81 27.25 118.17 25.15 118.17 23.23 121.81 25.33 121.81 27.25"/>
    <polygon class="cls-87" points="121.73 31.43 106.24 22.48 106.24 20.56 121.73 29.51 121.73 31.43"/>
    <polygon class="cls-8" points="126.28 34.05 121.13 31.08 121.13 29.16 126.28 32.13 126.28 34.05"/>
    <polygon class="cls-8" points="131.81 37.25 127.61 34.82 127.61 32.9 131.81 35.33 131.81 37.25"/>
    <polygon class="cls-8" points="116.48 32.62 106.24 26.71 106.24 24.79 116.48 30.7 116.48 32.62"/>
    <polygon class="cls-8" points="121.45 35.49 117.89 33.43 117.89 31.52 121.45 33.57 121.45 35.49"/>
    <polygon class="cls-8" points="117.26 37.29 106.24 30.93 106.24 29.01 117.26 35.37 117.26 37.29"/>
    <polygon class="cls-8" points="121.17 39.55 118.17 37.82 118.17 35.9 121.17 37.63 121.17 39.55"/>
    <polygon class="cls-87" points="127.55 43.23 122.43 40.27 122.43 38.36 127.55 41.32 127.55 43.23"/>
    <polygon class="cls-8" points="116.73 41.21 106.24 35.15 106.24 33.23 116.73 39.29 116.73 41.21"/>
    <polygon class="cls-87" points="122.04 44.27 117.3 41.54 117.3 39.62 122.04 42.36 122.04 44.27"/>
    <polygon class="cls-8" points="132.16 24.52 106.24 9.56 106.24 7.64 132.16 22.61 132.16 24.52"/>
    <polygon class="cls-8" points="148.61 34.02 134.55 25.9 134.55 23.99 148.61 32.1 148.61 34.02"/>
    <polygon class="cls-8" points="155.31 69.5 153.32 68.34 153.32 67.84 155.31 69 155.31 69.5"/>
    <polygon class="cls-8" points="153.03 68.14 151.05 66.98 151.05 66.49 153.03 67.64 153.03 68.14"/>
    <path class="cls-84"
          d="M158,70.86c0,.48-.34.68-.76.44a1.71,1.71,0,0,1-.76-1.33c0-.49.34-.68.76-.44A1.69,1.69,0,0,1,158,70.86Z"/>
    <path class="cls-8"
          d="M157.53,71.9a1.17,1.17,0,0,1-.58-.17,2.18,2.18,0,0,1-1-1.76,1,1,0,0,1,1.5-.87,2.17,2.17,0,0,1,1,1.76A.94.94,0,0,1,157.53,71.9Zm-.6-2a1.18,1.18,0,0,0,.51.91A1.15,1.15,0,0,0,157,70Z"/>
    <path class="cls-88"
          d="M159.68,34.21V69.38a.67.67,0,0,1-.56-.1L105.45,38.07a1.92,1.92,0,0,1-.86-1.51v-2a61.62,61.62,0,0,1,22.83-4.91C148.6,29.67,156.92,33.58,159.68,34.21Z"/>
    <path class="cls-8"
          d="M180.5,96.62l29.25,17s6.6-5,10.55-6.17L189.21,89.38a44.65,44.65,0,0,0-10.52,6.1,20.54,20.54,0,0,0,1.81,1.14Z"/>
    <g class="cls-83">
        <path class="cls-84"
              d="M180.51,96.59c2.49,1.33,5,2.63,7.45,4l3.7,2,3.67,2.1c2.46,1.39,4.9,2.8,7.32,4.25l3.64,2.15c1.22.71,2.41,1.47,3.62,2.2l-.47.27a5.1,5.1,0,0,1,.52-.52,3.15,3.15,0,0,1,.29-.22l.23-.16.92-.62c.6-.43,1.24-.81,1.88-1.19l.95-.57c.31-.2.65-.36,1-.54l2-1s-1.89,1.16-1.89,1.16c-.31.19-.64.36-1,.57l-.92.61c-.61.41-1.24.8-1.83,1.24l-1.78,1.28s-29.3-17-29.3-17Z"/>
    </g>
    <path class="cls-7" d="M220.3,107.46a45,45,0,0,0-10.55,6.13v2.17l10.59-6.15v-2.17Z"/>
    <path class="cls-85" d="M180.5,96.62l-1.87-1.09c0,.73,0,1.45,0,2.17l31.13,18.1v-2.17Z"/>
    <path class="cls-84"
          d="M197.34,87.85V100.7a1.08,1.08,0,0,0,.63.88,3.35,3.35,0,0,0,3,0,1.08,1.08,0,0,0,.63-.88V87.85Z"/>
    <polygon class="cls-8" points="209.62 100.96 207.63 99.81 207.63 99.31 209.62 100.46 209.62 100.96"/>
    <polygon class="cls-8" points="212.15 102.43 210.16 101.28 210.16 100.78 212.15 101.93 212.15 102.43"/>
    <polygon class="cls-8" points="214.68 103.9 212.69 102.75 212.69 102.25 214.68 103.4 214.68 103.9"/>
    <path class="cls-7"
          d="M222,67.29,168.29,36.08a1.23,1.23,0,0,0-.82-.19,10.86,10.86,0,0,0-1.54.85l.87,1.64V73.73a3.27,3.27,0,0,0,1.49,2.59l53,30.84.28,1.28,1.16-.71c.42-.06.71-.43.71-1V69.89A3.33,3.33,0,0,0,222,67.29Z"/>
    <path class="cls-85"
          d="M220.72,108.26,167,77.05a3.33,3.33,0,0,1-1.49-2.6V37.67a1.09,1.09,0,0,1,.38-.93,1,1,0,0,1,1.11.06L220.72,68a3.32,3.32,0,0,1,1.48,2.59V107.4C222.2,108.35,221.54,108.74,220.72,108.26Z"/>
    <path class="cls-8"
          d="M221.58,70.25v35.38c0,.53-.4.73-.87.46L167,74.87a1.91,1.91,0,0,1-.86-1.5V38c0-.31.11-.51.31-.58a.57.57,0,0,1,.55.08l53.67,31.21A1.91,1.91,0,0,1,221.58,70.25Z"/>
    <path class="cls-86"
          d="M221.57,70.24v35.39a.64.64,0,0,1-.55-.09L167.35,74.32a1.93,1.93,0,0,1-.87-1.51V37.44a.66.66,0,0,1,.56.08l53.67,31.22A1.9,1.9,0,0,1,221.57,70.24Z"/>
    <path class="cls-89"
          d="M182,76.72a.62.62,0,0,1-.32-.09L171,70.45a.63.63,0,0,1-.33-.55.65.65,0,0,1,.33-.56l10.63-6.14a.66.66,0,0,1,.64,0l10.7,6.18a.64.64,0,0,1,.32.56.62.62,0,0,1-.32.55L182.3,76.63A.63.63,0,0,1,182,76.72Zm-9.41-6.82L182,75.33l9.35-5.39-9.41-5.44Z"/>
    <path class="cls-89"
          d="M182,68.14a.62.62,0,0,1-.32-.09L171,61.88a.64.64,0,0,1,0-1.12l10.63-6.13a.61.61,0,0,1,.64,0l10.7,6.17a.65.65,0,0,1,0,1.12L182.3,68.05A.63.63,0,0,1,182,68.14Zm-9.41-6.82L182,66.75l9.35-5.39-9.41-5.43Z"/>
    <path class="cls-89"
          d="M182,76.72a.62.62,0,0,1-.32-.09L171,70.45a.65.65,0,0,1-.33-.55l0-8.57a.64.64,0,0,1,.32-.56.63.63,0,0,1,.65,0l10.69,6.17a.68.68,0,0,1,.33.56l0,8.57a.65.65,0,0,1-.32.56A.63.63,0,0,1,182,76.72Zm-10.05-7.19L181.33,75l0-7.09-9.41-5.43Z"/>
    <path class="cls-89"
          d="M192.61,70.58a.59.59,0,0,1-.32-.09l-10.7-6.18a.65.65,0,0,1-.33-.55l0-8.58a.65.65,0,0,1,1-.55l10.69,6.17a.66.66,0,0,1,.33.56l0,8.57a.65.65,0,0,1-.32.56A.62.62,0,0,1,192.61,70.58Zm-10.06-7.2L192,68.82l0-7.09-9.41-5.43Z"/>
    <path class="cls-89"
          d="M182,76.72a.62.62,0,0,1-.32-.09.65.65,0,0,1-.32-.56l0-8.57a.65.65,0,0,1,.32-.56l10.7-6.17a.63.63,0,0,1,.65,0,.66.66,0,0,1,.32.56l0,8.57a.62.62,0,0,1-.32.55l-10.7,6.18A.62.62,0,0,1,182,76.72Zm.68-8.85,0,7.09,9.41-5.43,0-7.09Z"/>
    <path class="cls-89"
          d="M203.47,88.87a.72.72,0,0,1-.32-.08l-10.7-6.18a.64.64,0,0,1-.32-.56.62.62,0,0,1,.32-.55l10.64-6.14a.61.61,0,0,1,.64,0l10.7,6.18a.64.64,0,0,1,.32.55.67.67,0,0,1-.32.56L203.8,88.79A.76.76,0,0,1,203.47,88.87Zm-9.41-6.82,9.41,5.44,9.35-5.4-9.41-5.43Z"/>
    <path class="cls-89"
          d="M203.47,88.87a.72.72,0,0,1-.32-.08l-10.7-6.18a.62.62,0,0,1-.3-.42.65.65,0,0,1,.1-.51L202.89,67a.64.64,0,0,1,1.16.38l.07,20.89a.65.65,0,0,1-.32.56A.73.73,0,0,1,203.47,88.87Zm-9.76-7,9.12,5.26-.06-17.79Z"/>
    <path class="cls-89"
          d="M214.1,82.73a.72.72,0,0,1-.32-.08l-10.69-6.18a.68.68,0,0,1-.33-.56l0-8.57a.64.64,0,0,1,1.16-.38l10.73,14.75a.64.64,0,0,1-.52,1Zm-10-7.19L211.8,80,204,69.33Z"/>
    <polygon class="cls-8" points="217.21 105.37 215.22 104.22 215.22 103.72 217.21 104.87 217.21 105.37"/>
    <polygon class="cls-8" points="214.93 104.01 212.95 102.86 212.95 102.36 214.93 103.52 214.93 104.01"/>
    <path class="cls-84"
          d="M219.85,106.73c0,.49-.34.68-.76.44a1.69,1.69,0,0,1-.76-1.32c0-.49.34-.69.76-.45A1.71,1.71,0,0,1,219.85,106.73Z"/>
    <path class="cls-8"
          d="M219.43,107.77a1.08,1.08,0,0,1-.58-.17,2.16,2.16,0,0,1-1-1.75,1,1,0,0,1,1.5-.88,2.18,2.18,0,0,1,1,1.76A.94.94,0,0,1,219.43,107.77Zm-.6-1.94a1.2,1.2,0,0,0,.51.91,1.13,1.13,0,0,0-.49-.9Z"/>
    <path class="cls-90"
          d="M221.57,70.08v35.17a.64.64,0,0,1-.55-.09L167.35,73.94a1.91,1.91,0,0,1-.87-1.5v-2a61.83,61.83,0,0,1,22.84-4.91C210.5,65.54,218.81,69.45,221.57,70.08Z"/>
    <path class="cls-91"
          d="M62.81,106.22l-5.2,21.29s-1.82,1.68-2.35,1.62c-.16-.06-.18-.2-.1-.48.48-1.55,1.74-2.37,2.06-4.37.23-1.46,3-12,4.44-17.65.46-1.73-.46-2.74-1.81-2l-2.05,1.13c-6.65,3.68-18,10.09-19.37,11.5-1.9,2-6,7.11-6,7.11s-.73.5-.82.19c-.05-.15,0-.49.43-1.15a63.71,63.71,0,0,1,5.23-6.28l.17-.15c.13-.13.26-.26.39-.37l.19-.17.19-.15.32-.25.37-.24,19.17-11.07,2.09-1.2a3.62,3.62,0,0,1,.57-.27,2.25,2.25,0,0,1,.74-.11C63,103.11,63.86,104.27,62.81,106.22Z"/>
    <path class="cls-92"
          d="M61.66,106.63c-1.47,5.62-4.21,16.19-4.44,17.65-.32,2-1.58,2.82-2.06,4.37-.08.28-.06.42,0,.46-.49-.12-4-1.07-3.59-2.51s1.74-2.37,2-4.37c.22-1.37,2.63-10.67,4.14-16.47l2.05-1.13C61.2,103.89,62.12,104.9,61.66,106.63Z"/>
    <path class="cls-91"
          d="M61.47,103.15a2,2,0,0,0-.74.11,3.62,3.62,0,0,0-.57.27l-2.09,1.2L38.9,115.8l-.27.17-.33.25-.28.22-.19.17c-.13.11-.26.24-.39.37l-.17.15A63.71,63.71,0,0,0,32,123.41c-.39.66-.48,1-.43,1.15s-3.31-2-3.31-2c-.29.06-.45-.14.18-1.24,0,0,4.58-6.29,6.87-7.61l21.26-12.27a1.89,1.89,0,0,1,1.6,0l1.19.62Z"/>
    <polygon class="cls-5" points="73.68 144.51 73.42 160.01 71.97 158.47 73.68 144.51"/>
    <g class="cls-93">
        <path class="cls-94" d="M101.56,205.54a1,1,0,0,1-.32.18Z"/>
        <path class="cls-95"
              d="M99.12,206.87a1.71,1.71,0,0,1-.5,1.33,1.45,1.45,0,0,1-1.71,0,4.9,4.9,0,0,1-2.21-3.83,2.08,2.08,0,0,1,.18-.91,1.11,1.11,0,0,1,.66-.6,1.67,1.67,0,0,1,1.37.24,3.58,3.58,0,0,1,.65.49A5.3,5.3,0,0,1,99,206.07a3.63,3.63,0,0,1,.09.65C99.11,206.77,99.12,206.82,99.12,206.87Z"/>
        <path class="cls-96"
              d="M99.29,205.81a2.08,2.08,0,0,1-.18.91,3.63,3.63,0,0,0-.09-.65,5.3,5.3,0,0,0-1.46-2.53,3.58,3.58,0,0,0-.65-.49,1.67,1.67,0,0,0-1.37-.24,1.11,1.11,0,0,0-.66.6v-.15a1.46,1.46,0,0,1,.83-1.52A1.66,1.66,0,0,1,97,202a3.73,3.73,0,0,1,.71.52A5.29,5.29,0,0,1,99.2,205,3.86,3.86,0,0,1,99.29,205.81Z"/>
        <path class="cls-97"
              d="M102.05,204.22a2.08,2.08,0,0,1-.18.91,1.17,1.17,0,0,1-.31.41l-.32.18L99.11,207a1.65,1.65,0,0,0,0-.23,2.08,2.08,0,0,0,.18-.91,3.86,3.86,0,0,0-.09-.81,5.29,5.29,0,0,0-1.47-2.53,4.19,4.19,0,0,0-.64-.49,1.74,1.74,0,0,0-1.37-.24l2.39-1.38a1.46,1.46,0,0,1,1.74,0A4.87,4.87,0,0,1,102.05,204.22Z"/>
        <path class="cls-98"
              d="M101.88,205.28a1.66,1.66,0,0,1-.5,1.32l-.31.18-2.45,1.42a1.61,1.61,0,0,0,.49-1.25l2.13-1.23.32-.18a1.17,1.17,0,0,0,.31-.41A.76.76,0,0,1,101.88,205.28Z"/>
        <path class="cls-94" d="M48.75,175.05a1,1,0,0,1-.31.18Z"/>
        <path class="cls-95"
              d="M46.31,176.38a1.7,1.7,0,0,1-.5,1.33,1.45,1.45,0,0,1-1.71-.05,4.88,4.88,0,0,1-2.21-3.83,2,2,0,0,1,.19-.9,1.11,1.11,0,0,1,.65-.61,1.67,1.67,0,0,1,1.37.24,3.36,3.36,0,0,1,.65.49,5.15,5.15,0,0,1,1.46,2.53,3.8,3.8,0,0,1,.1.65Z"/>
        <path class="cls-96"
              d="M46.49,175.32a2.2,2.2,0,0,1-.18.91,3.8,3.8,0,0,0-.1-.65,5.15,5.15,0,0,0-1.46-2.53,3.36,3.36,0,0,0-.65-.49,1.65,1.65,0,0,0-1.36-.24,1.1,1.1,0,0,0-.66.61.86.86,0,0,1,0-.16,1.44,1.44,0,0,1,.84-1.51,1.61,1.61,0,0,1,1.31.2,3.65,3.65,0,0,1,.71.53,5.15,5.15,0,0,1,1.46,2.53A3.73,3.73,0,0,1,46.49,175.32Z"/>
        <path class="cls-97"
              d="M49.25,173.73a2.23,2.23,0,0,1-.18.91,1.11,1.11,0,0,1-.32.41l-.31.18-2.13,1.23v-.23a2.2,2.2,0,0,0,.18-.91,3.73,3.73,0,0,0-.1-.8A5.15,5.15,0,0,0,44.93,172a3.26,3.26,0,0,0-.65-.49,1.66,1.66,0,0,0-1.37-.24l2.4-1.39a1.46,1.46,0,0,1,1.73,0A4.9,4.9,0,0,1,49.25,173.73Z"/>
        <path class="cls-98"
              d="M49.07,174.79a1.65,1.65,0,0,1-.5,1.33l-.31.18-2.45,1.41a1.63,1.63,0,0,0,.5-1.25l2.13-1.23.31-.18a1.11,1.11,0,0,0,.32-.41Z"/>
        <path class="cls-94" d="M48.75,205.54a1,1,0,0,1-.31.18Z"/>
        <path class="cls-95"
              d="M46.31,206.87a1.71,1.71,0,0,1-.5,1.33,1.45,1.45,0,0,1-1.71,0,4.9,4.9,0,0,1-2.21-3.83,2.08,2.08,0,0,1,.19-.91,1.09,1.09,0,0,1,.65-.6,1.67,1.67,0,0,1,1.37.24,3,3,0,0,1,.65.49,5.15,5.15,0,0,1,1.46,2.53,3.65,3.65,0,0,1,.1.65Z"/>
        <path class="cls-96"
              d="M46.49,205.81a2.23,2.23,0,0,1-.18.91,3.65,3.65,0,0,0-.1-.65,5.15,5.15,0,0,0-1.46-2.53,3,3,0,0,0-.65-.49,1.65,1.65,0,0,0-1.36-.24,1.08,1.08,0,0,0-.66.6.76.76,0,0,1,0-.15,1.46,1.46,0,0,1,.84-1.52,1.66,1.66,0,0,1,1.31.21,4.08,4.08,0,0,1,.71.52A5.19,5.19,0,0,1,46.39,205,3.9,3.9,0,0,1,46.49,205.81Z"/>
        <path class="cls-97"
              d="M49.25,204.22a2.23,2.23,0,0,1-.18.91,1.19,1.19,0,0,1-.32.41l-.31.18L46.31,207v-.23a2.23,2.23,0,0,0,.18-.91,3.9,3.9,0,0,0-.1-.81,5.19,5.19,0,0,0-1.46-2.53,4.26,4.26,0,0,0-.65-.49,1.73,1.73,0,0,0-1.37-.24l2.4-1.38a1.45,1.45,0,0,1,1.73,0A4.88,4.88,0,0,1,49.25,204.22Z"/>
        <path class="cls-98"
              d="M49.07,205.28a1.63,1.63,0,0,1-.5,1.32l-.31.18-2.45,1.42a1.65,1.65,0,0,0,.5-1.25l2.13-1.23.31-.18a1.19,1.19,0,0,0,.32-.41Z"/>
        <path class="cls-94" d="M101.56,175.05a1,1,0,0,1-.32.18Z"/>
        <path class="cls-95"
              d="M99.12,176.38a1.7,1.7,0,0,1-.5,1.33,1.45,1.45,0,0,1-1.71-.05,4.88,4.88,0,0,1-2.21-3.83,2,2,0,0,1,.18-.9,1.13,1.13,0,0,1,.66-.61,1.67,1.67,0,0,1,1.37.24,4.1,4.1,0,0,1,.65.49A5.3,5.3,0,0,1,99,175.58a3.76,3.76,0,0,1,.09.65C99.11,176.28,99.12,176.33,99.12,176.38Z"/>
        <path class="cls-96"
              d="M99.29,175.32a2,2,0,0,1-.18.91,3.76,3.76,0,0,0-.09-.65,5.3,5.3,0,0,0-1.46-2.53,4.1,4.1,0,0,0-.65-.49,1.67,1.67,0,0,0-1.37-.24,1.13,1.13,0,0,0-.66.61v-.16a1.43,1.43,0,0,1,.83-1.51,1.61,1.61,0,0,1,1.31.2,3.37,3.37,0,0,1,.71.53,5.24,5.24,0,0,1,1.47,2.53A3.7,3.7,0,0,1,99.29,175.32Z"/>
        <path class="cls-97"
              d="M102.05,173.73a2.08,2.08,0,0,1-.18.91,1.09,1.09,0,0,1-.31.41l-.32.18-2.13,1.23a1.65,1.65,0,0,0,0-.23,2,2,0,0,0,.18-.91,3.7,3.7,0,0,0-.09-.8A5.24,5.24,0,0,0,97.73,172a3.21,3.21,0,0,0-.64-.49,1.66,1.66,0,0,0-1.37-.24l2.39-1.39a1.48,1.48,0,0,1,1.74,0A4.89,4.89,0,0,1,102.05,173.73Z"/>
        <path class="cls-98"
              d="M101.88,174.79a1.69,1.69,0,0,1-.5,1.33l-.31.18-2.45,1.41a1.59,1.59,0,0,0,.49-1.25l2.13-1.23.32-.18a1.09,1.09,0,0,0,.31-.41A.76.76,0,0,1,101.88,174.79Z"/>
        <path class="cls-99"
              d="M100.44,168.94c-.26-.06-1.08-.75-1.42-.82-8.17-1.72-17.64.53-27.11,6s-19,14.19-27.23,25.39c-.67.91-.86,2-.45,2.4s1.22.63,1.42.82c.42.42,1.25,0,1.87-.81,7.78-10.61,16.79-18.87,25.8-24.06s18-7.29,25.7-5.67c.63.13,1.45-.45,1.86-1.33S101.11,169.08,100.44,168.94Z"/>
        <path class="cls-99"
              d="M100.44,200.31C92.27,189.16,82.8,180.47,73.33,175s-19-7.77-27.23-6.05c-.33.07-1.16.77-1.42.82-.67.14-.86,1-.45,1.87s1.25,1.49,1.87,1.36c7.78-1.63,16.79.52,25.8,5.73s17.95,13.43,25.7,24c.62.86,1.45,1.23,1.86.83.22-.21,1.14-.55,1.42-.82C101.31,202.31,101.11,201.22,100.44,200.31Z"/>
        <path class="cls-100"
              d="M72.94,176.71a3,3,0,0,1-2.66,0c-.54-.31-.68-.77-.42-1.16V143.43l3.55,2v30.16C73.6,176,73.44,176.42,72.94,176.71Z"/>
        <path class="cls-101"
              d="M69.91,84.27s4.15.74,5.52.37a41.24,41.24,0,0,1,6.43-1,3.82,3.82,0,0,0,1.59-.18l7.69-3.62,6-2.29a16.36,16.36,0,0,0,4.22,0c1.12-.35,2-.57,1.57.33a3.44,3.44,0,0,1-2.71,1.58,3.86,3.86,0,0,0-1.57.38l4.5.24s.39,1.79-.91,1.79-4.69.26-4.69.26a10.55,10.55,0,0,0-3,2.26,13.66,13.66,0,0,0-2,2.95,2.45,2.45,0,0,0,2.8.91c2.07-.43,3,.87,3,1.55s-1.51,1.63-2.4,1.47-1.7-.66-1.94-.65a8.26,8.26,0,0,1-3.46-.12c-2.49-.43-5.18-1.58-6.27-1.6a32.27,32.27,0,0,0-3.38.29s-14.58,1.92-17.46,1.76-6.91-.24-5.94-5.71S69.91,84.27,69.91,84.27Z"/>
        <path class="cls-102"
              d="M79.66,123.32l1.88,36.16a.66.66,0,0,0,.35.71c1.21.71,5.22-.47,9-2.62,1.55-.9,2.92-27.1,3.78-27.92.45-.3.61-11.05.61-11.05Z"/>
        <path class="cls-103"
              d="M87.56,64.07c-.64,1.56-1.71,1.83-1.65,2.79s1,.59,0,2.41-1.29,5.52-3.75,6.38l-.21.07c-2.33.75-3.67,0-4,1.93S76.72,84.29,77,84.53C97.71,105.8,53.23,87,64.4,77.73l2.68-6.41L67.2,71s-4.29-6.22-2.8-11.31S69.24,52.07,77.06,52s9.54,5.15,9.86,6.22S88.21,62.52,87.56,64.07Z"/>
        <path class="cls-101"
              d="M87.56,64.07c-.64,1.56-1.71,1.83-1.65,2.79s1,.59,0,2.41-1.29,5.52-3.75,6.38l-.21.07c-.12-.22-11,2-11.48-1.89-.33-2.83-2.22-1.3-3.44-2.51L67.2,71s-4.29-6.22-2.8-11.31S69.24,52.07,77.06,52s9.54,5.15,9.86,6.22S88.21,62.52,87.56,64.07Z"/>
        <path class="cls-92"
              d="M64.14,115.66H61.38v.78a.66.66,0,0,0,.41.64,2.16,2.16,0,0,0,2,0,.64.64,0,0,0,.39-.64S64.14,115.66,64.14,115.66Z"/>
        <path class="cls-5"
              d="M63.74,116.22a2.16,2.16,0,0,1-2,0,.59.59,0,0,1,0-1.12,2.16,2.16,0,0,1,2,0A.59.59,0,0,1,63.74,116.22Z"/>
        <path class="cls-92" d="M73.55,131.55H70.8v.78a.66.66,0,0,0,.4.64,2.16,2.16,0,0,0,2,0,.66.66,0,0,0,.4-.64Z"/>
        <path class="cls-5"
              d="M73.15,132.11a2.1,2.1,0,0,1-2,0,.59.59,0,0,1,0-1.12,2.16,2.16,0,0,1,2,0A.59.59,0,0,1,73.15,132.11Z"/>
        <path class="cls-102"
              d="M99.74,115.08c-6.42-2.21-17.41,3.56-25.81,7.67.51,7.1,2.08,14.06,3.32,21.07,6.26-2.17,11.37-8.88,18.86-14.21l7.1-3.63C103.69,118.62,103.14,116.25,99.74,115.08Z"/>
        <path class="cls-104"
              d="M84.86,152.31l-5.14,3.94c.06,4.73,0,7.05,1.88,8.28,2.23,1.5,6,.29,8.27-.75l.61-1.83c2.19-.3,1.7.35,4.07-1,4-2.2,9.78-5.6,10.56-9.53.2-1-.57-2.82-1.59-2.65l-9.33,3.24Z"/>
        <path class="cls-104"
              d="M107,168.56l-5.3,3.71c-.14,4.73-.25,7,1.53,8.36,2.16,1.59,6,.54,8.29-.4l.69-1.81c3.12-.3,2.26.18,5.43-1.47,3.84-2,8.5-4.78,9.34-8.26.25-1-.45-2.83-1.47-2.71l-6.59,2.93Z"/>
        <path class="cls-105"
              d="M114.84,123.74c-.64,3.2-8.48,9.81-9.26,13,0,0-3.7,36.84-3.53,37,1,1,10.52,2.73,11.87-5,4-1,9.37-37.6,9.37-37.6C125.6,123.46,116.88,116.91,114.84,123.74Z"/>
        <path class="cls-96"
              d="M115,145.36l-17.34,5.35-10.61,8.12-11.21,3.78L73.42,160,72,158.47l1.71-14,.55-4.45L71.36,129.3,69.83,121a6,6,0,0,1,3.42.42C73.34,121.4,115,145.36,115,145.36Z"/>
        <path class="cls-105"
              d="M65.82,123.94l-13.3-.51c-1.6,7.24-.7,15.8,2.64,19.3,4.81,5,14.11,11.85,23.42,9.72,6.91-1.58,18.8-8.66,26.84-14.39l17.56-7.7c3.31-6.61,5-10.75-4.2-12.73-6.64-1.43-24.2,5.72-32.6,9.83Z"/>
        <path class="cls-106"
              d="M82.87,144a8.69,8.69,0,0,1-4.73.15c-7-1.26-25.78-7.49-25.43-19.56.14-5.07,3.71-5.87-1.14-18.91-9.36-25.19,4-32,6.54-32s7.14,2.09,7.14,2.09-3.17,4.73,1.49,7.62c7.59,4.68,7.81,2.35,10.45,2,3.07-.38,7.65,4.21,10.26,6.86,5,5.08-2.25,20.62-.19,24.72S91,130.74,91,130.74,93,139.86,82.87,144Z"/>
        <path class="cls-107"
              d="M82.87,144a8.69,8.69,0,0,1-4.73.15c-2.4-4.39-1.8-13.61-4.15-21.42C70.5,111.17,74,95.45,79.25,94a4.31,4.31,0,0,1,1.53-.14c1.58,1.23,2.89,2.28,3.28,2.67.8.8,1.16,2.47,1.23,4.6,0,.73,0,1.53,0,2.38-.1,2.35-.07,9.31,2,13.41S91,130.74,91,130.74,93,139.86,82.87,144Z"/>
        <path class="cls-101"
              d="M93.05,115s5.51-7.22,6.17-8.58,5.56-8.66,5.56-8.66l-1.88-1.47s-.33-1.42-.87-1.76-2.32-1.39-1.44-2a2.41,2.41,0,0,1,3.16.67c.79,1,1.26,1.54,1.26,1.54l1.9-4.56,0-4.49s-.1-2,.72-2.14,1.77-.07,1.25,1.16.14,1.71.14,1.71l.49,4,1.08-3.87a15.15,15.15,0,0,0,1.24-2.29c.16-.6,1.37-.54,1.4.31s-.12,3.14-.12,3.14l-1,3.26,2.12-3.52,2.32-2s1.56-.12,1,1a16.24,16.24,0,0,1-1.64,2.37l-1.69,3.77,2.79-.71,2.82.08s.06,1.53-.87,1.61a10.94,10.94,0,0,0-1.58.23l-2,1s-.61,3.38-1.86,4.44A18.94,18.94,0,0,1,111,100.9s-10.83,24.9-14.46,27S91.05,119,93.05,115Z"/>
        <path class="cls-107"
              d="M91.57,111.57s2.08-3.24,5.67-2.25,7.13,6.09,6.62,9.28-4.38,9.81-8.42,9.55S87.24,116.38,91.57,111.57Z"/>
        <path class="cls-106"
              d="M76.59,100.42c0,6.84,8.84,33.3,18.19,28.59s1.35-15.07,0-18.69S92.53,91.87,86,91.4,76.54,93.59,76.59,100.42Z"/>
        <path class="cls-103"
              d="M81,69.55c-.16,0,.51-1.46-.79-.87A3.15,3.15,0,0,0,78.13,71c-.22,1.11-.27,3.76.49,3.22a7.69,7.69,0,0,0,1.56-2.09h-.92c-.48,0,0-1.88.29-2.25C80.66,68.45,81,69.55,81,69.55Z"/>
        <path class="cls-108"
              d="M73.89,73.72s1.29-3,7.25-5.7c2.92-1.3,9.8-8.17,3.81-13.17a11.09,11.09,0,0,0-6.43-2.78c-3.94-.59-13,2-13.54,9.89C64.28,72.88,71.64,78.38,73.89,73.72Z"/>
        <path class="cls-109"
              d="M73.68,144.51l-1.71,14L73.42,160l0,2.6-40-22.87-.09-.25a2.8,2.8,0,0,1-.58-.27c-6.36-3.66-1.27-12.09-1.27-18.85S27.22,102,27.06,99.58s.67-4.35,1-4.15l41.44,23.92.3,1.65,1.53,8.3,2.36,12.82Z"/>
        <path class="cls-97"
              d="M69.53,119.35s6.94,18.51,6.71,22.56-4.7,16-.32,18.5,24.23-11.43,27.47-13.3,11.76-3.42,11.76-1-4.26-.18-7.58,1.73-27,18.94-33.38,15.27-1.27-12.09-1.27-18.85S68.66,126,68.5,123.5,69.17,119.15,69.53,119.35Z"/>
        <path class="cls-97"
              d="M107.8,132.2l-5.2,21.29s-1.82,1.67-2.35,1.62c-.16-.06-.18-.21-.1-.48.48-1.55,1.74-2.37,2.06-4.38.23-1.46,3-12,4.45-17.65.45-1.72-.47-2.74-1.82-2l-2,1.12c-6.65,3.69-18,10.1-19.37,11.5-1.89,2-6,7.11-6,7.11s-.72.51-.82.19c0-.15.05-.48.43-1.14a62.49,62.49,0,0,1,5.23-6.28l.17-.16q.19-.19.39-.36l.2-.17.18-.16.33-.24c.18-.13.28-.19.36-.24l19.17-11.07,2.09-1.21a3.25,3.25,0,0,1,.58-.26,2,2,0,0,1,.73-.12C107.6,129.17,108.24,130.39,107.8,132.2Z"/>
        <path class="cls-109"
              d="M106.66,132.6c-1.48,5.62-4.22,16.19-4.45,17.65-.32,2-1.58,2.83-2.06,4.38-.08.27-.06.42,0,.46-.49-.12-4-1.07-3.59-2.51s1.74-2.37,2.05-4.38c.22-1.36,2.63-10.66,4.14-16.47l2-1.12C106.19,129.86,107.11,130.88,106.66,132.6Z"/>
        <path class="cls-109"
              d="M106.46,129.12a2,2,0,0,0-.73.12,3.25,3.25,0,0,0-.58.26l-2.09,1.21L83.89,141.78l-.27.17-.33.24-.27.23-.2.17q-.19.16-.39.36l-.17.16A62.49,62.49,0,0,0,77,149.39c-.38.66-.48,1-.43,1.14s-3.31-1.95-3.31-1.95c-.29,0-.45-.14.18-1.24,0,0,4.58-6.29,6.87-7.61l21.26-12.28a2,2,0,0,1,1.6,0l1.19.62Z"/>
        <path class="cls-110"
              d="M72.17,75.71S72,64.66,78,62c2.92-1.3,12.14-1.61,9.37-11.09-.37-1.3-3.12-6.39-14.76-2-3.34,1.25-8.79,3.59-9.29,11.52C62.57,71.29,63.77,75.05,72.17,75.71Z"/>
    </g>
    <polygon class="cls-111"
             points="161.58 131.56 190.09 116.37 190.09 114.4 190.09 113.01 141.01 117.53 141.01 120.9 161.58 131.56"/>
    <polygon class="cls-112" points="161.58 128.19 190.09 113.01 169.53 102.34 141.01 117.53 161.58 128.19"/>
    <polygon class="cls-113" points="176.23 116.36 182.62 113.05 170.85 106.95 164.47 110.26 176.23 116.36"/>
    <polygon class="cls-114" points="161.91 129.05 161.91 130.83 141.79 120.64 141.79 118.65 161.91 129.05"/>
    <polygon class="cls-115" points="161.91 129.05 190.09 114.14 190.09 115.72 161.91 130.83 161.91 129.05"/>
    <path class="cls-116"
          d="M155.27,89.69a3.42,3.42,0,0,0-3,3.65c0,2.6,2.41,4.91,3.5,5a3.44,3.44,0,0,0,3.49-1.26c1.09-1.17,2.09-4.77.3-6.29C158.57,90,157.69,89.45,155.27,89.69Z"/>
    <path class="cls-117"
          d="M155.1,90.14c.45-.84-2.8.53-2.8,2.81s2.12,4.31,3.07,4.42a3.06,3.06,0,0,0,3.06-1.12c1-1,1.84-4.18.27-5.51C157.8,90,153.71,92.72,155.1,90.14Z"/>
    <path class="cls-118"
          d="M153.82,91.77a1,1,0,0,0-.89,1.08,1.72,1.72,0,0,0,1,1.5,1,1,0,0,0,1-.38c.33-.34.62-1.41.09-1.86A1.41,1.41,0,0,0,153.82,91.77Z"/>
    <path class="cls-119" d="M156,90.51s-.48-1.44-.22-1.94l.26-.5.44.26s-.42.26-.48.5S156,90.51,156,90.51Z"/>
    <path class="cls-120"
          d="M145.75,111.29a7.49,7.49,0,0,1-6.76,0c-1.87-1.09-1.88-2.83,0-3.91a7.46,7.46,0,0,1,6.76,0C147.6,108.47,147.61,110.21,145.75,111.29Z"/>
    <rect class="cls-120" x="137.58" y="100.99" width="9.56" height="8.24"/>
    <path class="cls-101"
          d="M145.75,102.85a7.49,7.49,0,0,1-6.76,0c-1.87-1.08-1.88-2.82,0-3.9a7.49,7.49,0,0,1,6.76,0C147.6,100,147.61,101.77,145.75,102.85Z"/>
    <path class="cls-120"
          d="M146.56,100.91a1.27,1.27,0,0,1-.28.75,2.59,2.59,0,0,1-.82.68,6.22,6.22,0,0,1-3.07.73,6.41,6.41,0,0,1-3.11-.74,2.65,2.65,0,0,1-.84-.72,1.24,1.24,0,0,1-.28-.74,1.8,1.8,0,0,1,1.1-1.43,6.86,6.86,0,0,1,6.18,0A1.88,1.88,0,0,1,146.56,100.91Z"/>
    <path class="cls-121"
          d="M146.28,101.66a2.59,2.59,0,0,1-.82.68,6.22,6.22,0,0,1-3.07.73,6.41,6.41,0,0,1-3.11-.74,2.65,2.65,0,0,1-.84-.72,2.83,2.83,0,0,1,.81-.68,6.33,6.33,0,0,1,3.07-.72,6.25,6.25,0,0,1,3.11.74A2.67,2.67,0,0,1,146.28,101.66Z"/>
    <path class="cls-101"
          d="M147,103.35l-.72.41.86.55a3.38,3.38,0,0,1,1.41,2l.08.92c0,1-.41,1.42-1.18,1.34l-.45,0-.72.41,1.11,1a2.25,2.25,0,0,0,1.93-2.06l0-1.48a3,3,0,0,0-1.25-2.29Z"/>
    <path class="cls-103"
          d="M146.28,103.76v.77l.78.45a2.12,2.12,0,0,1,.95,1.64v.91c0,1-.51,1.54-1.28,1.46l-.45,0v.91l.93,0c.83,0,1.37-.59,1.39-1.63l0-1.49a2.9,2.9,0,0,0-1.18-2.29Z"/>
</svg>
